<svg width="341" height="237" viewBox="0 0 341 237" fill="none" xmlns="http://www.w3.org/2000/svg">
<path d="M161.029 15.3683C177.979 21.5822 150.687 76.0281 232.817 76.0281C276.189 76.0281 266.841 120.512 293.014 123.668" stroke="#F6F5FA" stroke-width="1.14051" stroke-opacity="0.3"/>
<path d="M208.14 0.869202C225.09 7.08313 197.798 61.529 279.928 61.529C323.3 61.529 313.953 106.013 340.126 109.169" stroke="#F6F5FA" stroke-width="1.14051" stroke-opacity="0.3"/>
<path d="M86.2487 53.4608C113.759 49.5172 170.082 49.5115 158.785 72.7636C140.09 111.24 184.106 149.041 301.614 156.513" stroke="#F6F5FA" stroke-width="1.14051" stroke-opacity="0.3"/>
<path d="M35.3986 67.8025C69.4042 62.9356 139.027 62.9287 125.061 91.6244C101.952 139.109 156.361 185.759 301.614 194.981" stroke="#F6F5FA" stroke-width="1.14051" stroke-opacity="0.3"/>
<path d="M0.252533 91.7958C38.7476 86.2845 117.562 86.2766 101.753 118.772C75.5929 172.544 137.185 225.372 301.614 235.815" stroke="#F6F5FA" stroke-width="1.14051" stroke-opacity="0.3"/>
</svg>
