<svg width="64" height="64" viewBox="0 0 64 64" fill="none" xmlns="http://www.w3.org/2000/svg">
<path d="M45.3459 42.6738H50.6792V10.6739H24.0125V16.0072H45.3459V42.6738ZM45.3459 48.0071V56.005C45.3459 57.4788 44.1459 58.6738 42.6608 58.6738H10.6974C9.21461 58.6738 8.01301 57.4882 8.01301 56.005L8.01995 18.6762C8.02024 17.2022 9.22005 16.0072 10.7048 16.0072H18.6791V8.00724C18.6791 6.53447 19.8731 5.34058 21.3458 5.34058H53.3459C54.8187 5.34058 56.0125 6.53447 56.0125 8.00724V45.3404C56.0125 46.8132 54.8187 48.0071 53.3459 48.0071H45.3459ZM13.3528 21.3406L13.3469 53.3404H40.0125V21.3406H13.3528ZM18.6791 42.6738H30.6792C31.4155 42.6738 32.0125 42.077 32.0125 41.3404C32.0125 40.6042 31.4155 40.0071 30.6792 40.0071H22.6791C18.9973 40.0071 16.0125 37.0226 16.0125 33.3404C16.0125 29.6586 18.9973 26.6738 22.6791 26.6738H24.0125V24.0072H29.3459V26.6738H34.6792V32.0071H22.6791C21.9428 32.0071 21.3458 32.6042 21.3458 33.3404C21.3458 34.077 21.9428 34.6738 22.6791 34.6738H30.6792C34.3611 34.6738 37.3459 37.6586 37.3459 41.3404C37.3459 45.0226 34.3611 48.0071 30.6792 48.0071H29.3459V50.6738H24.0125V48.0071H18.6791V42.6738Z" fill="white"/>
</svg>
