<svg width="64" height="64" viewBox="0 0 64 64" fill="none" xmlns="http://www.w3.org/2000/svg">
<path d="M10.6667 58.6667C10.6667 46.8846 20.2179 37.3334 32 37.3334C43.7821 37.3334 53.3333 46.8846 53.3333 58.6667H48C48 49.8302 40.8365 42.6667 32 42.6667C23.1634 42.6667 16 49.8302 16 58.6667H10.6667ZM32 34.6667C23.16 34.6667 16 27.5067 16 18.6667C16 9.82675 23.16 2.66675 32 2.66675C40.84 2.66675 48 9.82675 48 18.6667C48 27.5067 40.84 34.6667 32 34.6667ZM32 29.3334C37.8933 29.3334 42.6667 24.5601 42.6667 18.6667C42.6667 12.7734 37.8933 8.00008 32 8.00008C26.1067 8.00008 21.3333 12.7734 21.3333 18.6667C21.3333 24.5601 26.1067 29.3334 32 29.3334Z" fill="white"/>
</svg>
