<svg width="64" height="64" viewBox="0 0 64 64" fill="none" xmlns="http://www.w3.org/2000/svg">
<path d="M32.0131 34.6741C36.4312 34.6741 40.0131 38.256 40.0131 42.6741C40.0131 44.9384 39.0723 46.9832 37.5603 48.4387L32.4667 53.3397L40.0131 53.3408V58.6741H24.013L24.0106 54.0757L33.8621 44.5957C34.3664 44.1096 34.6797 43.4285 34.6797 42.6741C34.6797 41.2013 33.4859 40.0075 32.0131 40.0075C30.5403 40.0075 29.3464 41.2013 29.3464 42.6741H24.013C24.013 38.256 27.5947 34.6741 32.0131 34.6741ZM48.0131 34.6741V45.3408H53.3464V34.6741H58.6797V58.6741H53.3464V50.6741H42.6797V34.6741H48.0131ZM10.6797 32.0075C10.6797 38.7451 13.803 44.7531 18.6807 48.6627L18.6797 55.1067C10.709 50.4957 5.34634 41.8779 5.34634 32.0075H10.6797ZM32.0131 5.34082C45.8405 5.34082 57.2099 15.8651 58.548 29.3405L53.1813 29.3411C51.8691 18.8174 42.892 10.6742 32.0131 10.6742C24.6803 10.6742 18.2116 14.3737 14.3717 20.0081L21.3463 20.0075V25.3408H5.34634V9.34082H10.6797L10.6794 16.0053C15.5446 9.52949 23.2897 5.34082 32.0131 5.34082Z" fill="white"/>
</svg>
